<svg xmlns="http://www.w3.org/2000/svg" width="1200" height="800" viewBox="0 0 1200 800">
<defs><linearGradient id="g" x1="0" y1="0" x2="1" y2="1"><stop stop-color="#edf8ff"/><stop offset="1" stop-color="#cfeaff"/></linearGradient><linearGradient id="b" x1="0" y1="0" x2="1" y2="1"><stop stop-color="#003b84"/><stop offset="1" stop-color="#1688ef"/></linearGradient></defs>
<rect width="1200" height="800" fill="url(#g)"/>
<circle cx="995" cy="150" r="180" fill="#1688ef" opacity=".12"/>
<circle cx="150" cy="670" r="220" fill="#003b84" opacity=".10"/>
<path d="M0 600 C200 500 350 650 540 560 C760 455 880 520 1200 390 L1200 800 L0 800 Z" fill="#0a4f9f" opacity=".18"/>
<rect x="105" y="130" width="990" height="540" rx="42" fill="white" stroke="#d8e7f3" stroke-width="4"/>
<circle cx="250" cy="310" r="84" fill="url(#b)"/>
<path d="M220 340h70a22 22 0 0 0 0-44h-42" fill="none" stroke="white" stroke-width="12" stroke-linecap="round" stroke-linejoin="round"/>
<path d="M218 340V250a26 26 0 0 1 52 0v80" fill="none" stroke="white" stroke-width="12" stroke-linecap="round" stroke-linejoin="round"/>
<text x="390" y="305" font-family="Arial, sans-serif" font-size="58" font-weight="800" fill="#092a4a">Stain Removal</text>
<text x="390" y="372" font-family="Arial, sans-serif" font-size="36" font-weight="700" fill="#1688ef">Spots &amp; Spills</text>
<text x="390" y="445" font-family="Arial, sans-serif" font-size="30" fill="#506981">BluePeak Cleaning Co.</text>
<text x="390" y="495" font-family="Arial, sans-serif" font-size="26" fill="#64748b">Replace this image with your real portfolio photo.</text>
</svg>