<svg xmlns="http://www.w3.org/2000/svg" width="1200" height="800" viewBox="0 0 1200 800">
  <defs>
    <linearGradient id="g" x1="0" y1="0" x2="1" y2="1"><stop offset="0" stop-color="#f6fbff"/><stop offset="0.48" stop-color="#e7f5ff"/><stop offset="1" stop-color="#092a4a"/></linearGradient>
    <linearGradient id="b" x1="0" y1="0" x2="1" y2="0"><stop offset="0" stop-color="#092a4a"/><stop offset="1" stop-color="#176fc1"/></linearGradient>
  </defs>
  <rect width="1200" height="800" fill="url(#g)"/>
  <circle cx="1030" cy="120" r="150" fill="#176fc1" opacity="0.18"/>
  <circle cx="120" cy="690" r="220" fill="#22b8c9" opacity="0.18"/>
  <path d="M0 620 C220 520 370 680 570 585 C745 505 875 585 1200 455 L1200 800 L0 800 Z" fill="#092a4a" opacity="0.96"/>
  <path d="M150 470 h900 a54 54 0 0 1 54 54 v0 a54 54 0 0 1 -54 54 H150 a54 54 0 0 1 -54 -54 v0 a54 54 0 0 1 54 -54 Z" fill="#fff" opacity="0.82"/>
  <text x="600" y="250" font-family="Inter, Arial, sans-serif" text-anchor="middle" font-size="58" font-weight="900" fill="#092a4a">BLUEPEAK CLEANING CO.</text>
  <text x="600" y="335" font-family="Inter, Arial, sans-serif" text-anchor="middle" font-size="84" font-weight="900" fill="#176fc1">PORTFOLIO 03</text>
  <text x="600" y="535" font-family="Inter, Arial, sans-serif" text-anchor="middle" font-size="54" font-weight="900" fill="#092a4a">AREA RUGS</text>
  <text x="600" y="605" font-family="Inter, Arial, sans-serif" text-anchor="middle" font-size="34" font-weight="700" fill="#31506a">Rug cleaning service</text>
  <rect x="400" y="670" width="400" height="52" rx="26" fill="url(#b)"/>
  <text x="600" y="706" font-family="Inter, Arial, sans-serif" text-anchor="middle" font-size="24" font-weight="800" fill="#fff">Replace with real project photo</text>
</svg>